<svg width="216" height="74" viewBox="0 0 216 74" fill="none" xmlns="http://www.w3.org/2000/svg">
<path d="M0.67627 55V0.0683594H7.12158V55H0.67627ZM52.7515 55H46.7456V33.8696C46.7456 30.5737 45.8179 27.9614 43.9624 26.0327C42.1313 24.104 39.6289 23.1396 36.4551 23.1396C34.1846 23.1396 32.146 23.6523 30.3394 24.6777C28.5327 25.6787 27.1045 27.0947 26.0547 28.9258C25.0049 30.7568 24.48 32.8809 24.48 35.2979V55H18.4741V18.3789H23.7109L23.9307 24.3115C25.2734 22.1631 27.1289 20.5151 29.4971 19.3677C31.8896 18.2202 34.5752 17.6465 37.5537 17.6465C42.2168 17.6465 45.9155 19.0503 48.6499 21.8579C51.3843 24.6655 52.7515 28.4497 52.7515 33.2104V55ZM60.8081 51.814L62.3828 46.1743C63.2617 47.0044 64.2627 47.7246 65.3857 48.335C66.5088 48.9453 67.6929 49.4214 68.938 49.7632C70.1831 50.0806 71.4404 50.2393 72.71 50.2393C74.9805 50.2393 76.8115 49.7388 78.2031 48.7378C79.5947 47.7368 80.2905 46.4307 80.2905 44.8193C80.2905 43.6475 79.9243 42.6831 79.1919 41.9263C78.4839 41.145 77.5439 40.4736 76.3721 39.9121C75.2002 39.3506 73.9429 38.8135 72.6001 38.3008C70.9644 37.666 69.3408 36.9458 67.7295 36.1401C66.1182 35.3345 64.7754 34.2725 63.7012 32.9541C62.6514 31.6357 62.1265 29.9023 62.1265 27.7539C62.1265 25.7031 62.6392 23.9209 63.6646 22.4072C64.6899 20.8936 66.1182 19.7217 67.9492 18.8916C69.8047 18.0615 71.9287 17.6465 74.3213 17.6465C77.9346 17.6465 81.4868 18.5498 84.978 20.3564L83.1836 25.7764C82.4023 25.2637 81.499 24.812 80.4736 24.4214C79.4482 24.0063 78.3984 23.689 77.3242 23.4692C76.25 23.2495 75.2368 23.1396 74.2847 23.1396C72.5024 23.1396 71.062 23.5547 69.9634 24.3848C68.8647 25.1904 68.3154 26.2769 68.3154 27.644C68.3154 28.4253 68.5352 29.1455 68.9746 29.8047C69.4385 30.4395 70.2075 31.0742 71.2817 31.709C72.356 32.3438 73.8452 33.0518 75.7495 33.833C77.4341 34.5166 79.0942 35.2979 80.73 36.1768C82.3657 37.0312 83.7207 38.1421 84.7949 39.5093C85.8936 40.8521 86.4429 42.6099 86.4429 44.7827C86.4429 46.9312 85.8691 48.8354 84.7217 50.4956C83.5986 52.1313 82.0239 53.4131 79.9976 54.3408C77.9956 55.2686 75.6763 55.7324 73.0396 55.7324C68.6694 55.7324 64.5923 54.4263 60.8081 51.814ZM101.238 73.3105H95.2319V18.3789H100.579L100.872 23.7256C102.581 21.8457 104.644 20.3687 107.061 19.2944C109.478 18.1958 112.126 17.6465 115.007 17.6465C118.596 17.6465 121.807 18.4766 124.639 20.1367C127.495 21.7969 129.741 24.0674 131.377 26.9482C133.037 29.8047 133.867 33.0518 133.867 36.6895C133.867 40.3027 133.037 43.5498 131.377 46.4307C129.741 49.3115 127.495 51.582 124.639 53.2422C121.807 54.9023 118.596 55.7324 115.007 55.7324C112.249 55.7324 109.685 55.2319 107.317 54.231C104.973 53.23 102.947 51.8384 101.238 50.0562V73.3105ZM114.531 50.2393C117.095 50.2393 119.365 49.6655 121.343 48.5181C123.32 47.3462 124.858 45.7349 125.957 43.6841C127.08 41.6333 127.642 39.2896 127.642 36.6528C127.642 33.9917 127.08 31.6479 125.957 29.6216C124.834 27.5708 123.284 25.9595 121.306 24.7876C119.353 23.6157 117.107 23.0298 114.568 23.0298C112.151 23.0298 109.966 23.5669 108.013 24.6411C106.084 25.7153 104.521 27.1924 103.325 29.0723C102.129 30.9277 101.433 33.0518 101.238 35.4443V37.9346C101.433 40.3271 102.117 42.4512 103.289 44.3066C104.46 46.1621 106.011 47.6147 107.939 48.6646C109.893 49.7144 112.09 50.2393 114.531 50.2393ZM174.443 50.4956C169.902 53.9868 164.897 55.7324 159.429 55.7324C155.62 55.7324 152.202 54.8779 149.175 53.1689C146.147 51.46 143.755 49.1406 141.997 46.2109C140.264 43.2568 139.397 39.9243 139.397 36.2134C139.397 32.6489 140.203 29.4751 141.814 26.6919C143.425 23.8843 145.635 21.6748 148.442 20.0635C151.25 18.4521 154.436 17.6465 158 17.6465C161.663 17.6465 164.885 18.5254 167.668 20.2832C170.476 22.041 172.661 24.4824 174.224 27.6074C175.786 30.7324 176.567 34.3457 176.567 38.4473V39.6191H145.916C146.355 41.7676 147.234 43.6353 148.552 45.2222C149.871 46.8091 151.519 48.042 153.496 48.9209C155.498 49.7998 157.72 50.2393 160.161 50.2393C164.36 50.2393 168.193 48.8599 171.66 46.1011L174.443 50.4956ZM145.696 34.4922H170.891C170.623 32.2217 169.915 30.2441 168.767 28.5596C167.644 26.8506 166.179 25.52 164.373 24.5679C162.59 23.6157 160.576 23.1396 158.33 23.1396C156.06 23.1396 154.009 23.6157 152.178 24.5679C150.371 25.52 148.894 26.8506 147.747 28.5596C146.624 30.2441 145.94 32.2217 145.696 34.4922ZM215.459 49.7266C213.677 51.6553 211.565 53.1445 209.124 54.1943C206.682 55.2197 204.058 55.7324 201.25 55.7324C197.612 55.7324 194.341 54.9023 191.436 53.2422C188.555 51.582 186.272 49.3115 184.587 46.4307C182.927 43.5498 182.097 40.3027 182.097 36.6895C182.097 33.0518 182.927 29.8047 184.587 26.9482C186.272 24.0674 188.555 21.7969 191.436 20.1367C194.341 18.4766 197.612 17.6465 201.25 17.6465C204.033 17.6465 206.646 18.1592 209.087 19.1846C211.528 20.21 213.64 21.687 215.422 23.6157L211.833 27.3877C210.54 26.0205 208.989 24.9707 207.183 24.2383C205.4 23.5059 203.508 23.1396 201.506 23.1396C198.943 23.1396 196.66 23.7256 194.658 24.8975C192.681 26.0449 191.118 27.6318 189.971 29.6582C188.848 31.6846 188.286 34.0161 188.286 36.6528C188.286 39.2896 188.848 41.6333 189.971 43.6841C191.118 45.7349 192.681 47.3462 194.658 48.5181C196.66 49.6655 198.943 50.2393 201.506 50.2393C203.508 50.2393 205.413 49.873 207.219 49.1406C209.026 48.3838 210.564 47.334 211.833 45.9912L215.459 49.7266Z" fill="white"/>
</svg>
